#!OML:ASF F:\VICON\USERDATA\INSTALL\rory3\rory3.ASF
:FULLY-SPECIFIED
:DEGREES
189
root 0.166443 14.1654 5.08409 24.2741 -5.05271 -3.23893
lowerback 1.70509 -1.14692 3.18053
upperback -6.06589 -1.2259 2.48845
thorax -7.30437 -0.714998 0.925142
lowerneck -21.8009 -2.53845 -5.76253
upperneck 10.9361 -2.23383 3.13041
head 6.97278 -1.03108 1.68299
rclavicle -1.94809e-014 -1.78906e-015
rhumerus -38.4634 0.649353 -80.4029
rradius 52.3141
rwrist 8.82113
rhand -26.1097 -50.5619
rfingers 7.12502
rthumb 0.43984 -80.5412
lclavicle -1.94809e-014 -1.78906e-015
lhumerus -36.0504 -10.2217 78.7653
lradius 57.125
lwrist -2.32431
lhand -32.22 -42.6492
lfingers 7.12502
lthumb -5.46111 -12.7396
rfemur -67.5961 -3.26245 19.758
rtibia 86.959
rfoot -29.6914 -15.9896
rtoes -28.3784
lfemur -65.1107 11.2883 -10.5372
ltibia 87.081
lfoot -33.154 2.22959
ltoes -30.0319
190
root 0.15479 14.0349 5.04431 24.2232 -5.36313 -3.26869
lowerback 2.00916 -1.06315 2.87033
upperback -5.80869 -1.12771 2.42681
thorax -7.19657 -0.647909 1.02614
lowerneck -21.5745 -2.50749 -5.69795
upperneck 10.1593 -2.22784 3.2175
head 6.68161 -1.01397 1.70175
rclavicle 2.22142e-014 1.49089e-014
rhumerus -37.4198 0.660678 -80.4768
rradius 52.5748
rwrist 8.47856
rhand -26.815 -50.2793
rfingers 7.12502
rthumb -0.241372 -80.259
lclavicle 2.22142e-014 1.49089e-014
lhumerus -35.2705 -10.143 78.4754
lradius 57.4653
lwrist -2.69386
lhand -32.6257 -42.857
lfingers 7.12502
lthumb -5.85282 -12.9578
rfemur -68.4816 -2.8726 19.8161
rtibia 88.2938
rfoot -30.0421 -16.852
rtoes -28.4571
lfemur -65.7923 11.7477 -10.6683
ltibia 88.3519
lfoot -33.7325 3.40033
ltoes -30.4718
191
root 0.145515 13.9353 5.03077 24.2748 -5.56045 -3.23761
lowerback 1.94584 -1.02942 2.61847
upperback -5.60113 -1.11062 2.3471
thorax -6.93196 -0.625587 1.07482
lowerneck -21.2015 -2.49885 -5.70186
upperneck 9.48483 -2.25524 3.39941
head 6.40618 -1.00996 1.75936
rclavicle -3.49861e-014 1.11319e-014
rhumerus -36.4641 0.766602 -80.5983
rradius 52.781
rwrist 8.23419
rhand -26.9036 -51.1772
rfingers 7.12502
rthumb -0.326947 -81.1567
lclavicle -3.49861e-014 1.11319e-014
lhumerus -34.6061 -10.0579 78.193
lradius 57.8055
lwrist -3.18623
lhand -32.8657 -42.7455
lfingers 7.12502
lthumb -6.08455 -12.8529
rfemur -69.1803 -2.53593 19.7657
rtibia 89.3867
rfoot -30.6482 -17.2607
rtoes -27.3289
lfemur -66.0722 11.9489 -10.8704
ltibia 89.2972
lfoot -34.3544 5.30968
ltoes -31.3656
192
root 0.139836 13.8396 5.01148 24.4394 -5.54326 -3.49359
lowerback 2.07846 -1.02408 2.69987
upperback -5.60153 -1.08946 2.40776
thorax -7.01036 -0.61796 1.09439
lowerneck -20.9583 -2.47093 -5.73691
upperneck 9.19816 -2.23611 3.52242
head 6.27586 -0.991769 1.80791
rclavicle 2.09221e-014 -2.90226e-014
rhumerus -35.793 0.996593 -80.6496
rradius 52.9754
rwrist 8.04485
rhand -26.1581 -52.7714
rfingers 7.12502
rthumb 0.393053 -82.7508
lclavicle 2.09221e-014 -2.90226e-014
lhumerus -34.1364 -9.98087 78.0242
lradius 58.2928
lwrist -3.39386
lhand -32.6657 -42.8777
lfingers 7.12502
lthumb -5.89145 -12.9796
rfemur -69.922 -2.1284 20.0646
rtibia 90.3738
rfoot -31.1282 -17.7645
rtoes -26.3578
lfemur -66.4007 12.1337 -10.7598
ltibia 90.1093
lfoot -34.4538 8.1961
ltoes -33.4161
193
root 0.134862 13.7537 4.97919 24.5881 -5.47479 -3.61447
lowerback 2.4064 -1.04085 2.63587
upperback -5.68717 -1.09394 2.48122
thorax -7.29037 -0.615551 1.21785
lowerneck -20.8542 -2.43125 -5.77995
upperneck 9.14096 -2.18155 3.55829
head 6.23929 -0.96452 1.83303
rclavicle 4.17448e-015 9.74045e-015
rhumerus -35.4239 1.26909 -80.6022
rradius 53.3898
rwrist 7.93125
rhand -25.5282 -54.0439
rfingers 7.12502
rthumb 1.00139 -84.0213
lclavicle 4.17448e-015 9.74045e-015
lhumerus -33.6498 -9.92096 77.939
lradius 58.7327
lwrist -3.38631
lhand -32.2187 -43.3794
lfingers 7.12502
lthumb -5.4599 -13.4697
rfemur -70.7725 -1.71814 20.2293
rtibia 91.255
rfoot -31.2742 -18.4521
rtoes -25.8419
lfemur -67.0612 12.2019 -10.7814
ltibia 90.8985
lfoot -34.2585 10.1026
ltoes -34.6834
194
root 0.129998 13.6968 4.96166 24.7426 -5.4834 -3.49567
lowerback 2.47389 -1.05464 2.38924
upperback -5.77175 -1.12429 2.45092
thorax -7.4151 -0.61814 1.33047
lowerneck -20.5912 -2.41748 -5.84482
upperneck 9.12384 -2.16782 3.6065
head 6.19292 -0.958431 1.86163
rclavicle 1.7344e-014 2.127e-014
rhumerus -35.1685 1.72389 -80.6439
rradius 54.1586
rwrist 7.45337
rhand -26.0028 -53.6063
rfingers 7.12502
rthumb 0.543048 -83.5853
lclavicle 1.7344e-014 2.127e-014
lhumerus -33.1402 -10.0175 77.8399
lradius 59.0636
lwrist -3.56832
lhand -31.998 -43.745
lfingers 7.12502
lthumb -5.24681 -13.83
rfemur -71.4158 -1.32953 20.0773
rtibia 91.9074
rfoot -31.4055 -19.0321
rtoes -25.4065
lfemur -67.7077 12.0285 -11.0021
ltibia 91.5388
lfoot -34.2871 10.4852
ltoes -34.2811
195
root 0.125918 13.6836 4.96161 24.8312 -5.41557 -3.4807
lowerback 2.31724 -1.06436 2.37711
upperback -5.78458 -1.14801 2.39152
thorax -7.33816 -0.631137 1.27335
lowerneck -20.2411 -2.42284 -6.10187
upperneck 9.1784 -2.17687 3.9461
head 6.16289 -0.946883 2.01361
rclavicle -5.04168e-014 1.61016e-014
rhumerus -34.894 2.31377 -80.8018
rradius 55.0616
rwrist 7.17724
rhand -28.2571 -51.0715
rfingers 7.12502
rthumb -1.63419 -81.045
lclavicle -5.04168e-014 1.61016e-014
lhumerus -32.4776 -10.3633 77.7217
lradius 59.2227
lwrist -3.82498
lhand -32.0727 -43.7654
lfingers 7.12502
lthumb -5.31893 -13.8521
rfemur -71.5371 -0.914813 20.0152
rtibia 92.1833
rfoot -31.6025 -19.3904
rtoes -24.8298
lfemur -68.1327 11.6753 -10.9819
ltibia 91.9166
lfoot -34.2851 10.2143
ltoes -33.2607
196
root 0.124347 13.7069 4.96325 24.7372 -5.24911 -3.54532
lowerback 2.19069 -1.07408 2.54237
upperback -5.65772 -1.1631 2.34165
thorax -7.13319 -0.648364 1.1235
lowerneck -20.1383 -2.49369 -6.39245
upperneck 9.37223 -2.25809 4.31684
head 6.22172 -0.967511 2.17268
rclavicle -8.19987e-015 -1.72943e-014
rhumerus -34.5626 2.72125 -80.8195
rradius 55.6874
rwrist 7.4117
rhand -29.8215 -53.945
rfingers 7.12502
rthumb -3.14512 -83.9016
lclavicle -8.19987e-015 -1.72943e-014
lhumerus -31.7111 -10.7889 77.6449
lradius 59.3738
lwrist -4.23861
lhand -31.932 -43.6554
lfingers 7.12502
lthumb -5.18308 -13.7388
rfemur -71.235 -0.497017 20.0152
rtibia 92.0542
rfoot -31.5084 -19.8174
rtoes -24.5853
lfemur -68.3693 11.1627 -10.7521
ltibia 92.0527
lfoot -34.2647 9.46656
ltoes -31.2078
197
root 0.121611 13.7353 4.9578 24.5468 -5.20338 -3.37688
lowerback 2.28182 -1.07017 2.3292
upperback -5.62247 -1.17036 2.29265
thorax -7.14383 -0.641247 1.1932
lowerneck -19.9245 -2.56629 -6.50459
upperneck 9.50347 -2.34748 4.35158
head 6.23676 -1.01513 2.19307
rclavicle 1.22004e-014 -1.17283e-014
rhumerus -34.4212 3.52561 -80.9182
rradius 56.6219
rwrist 6.46271
rhand -30.0066 -55.0114
rfingers 7.12502
rthumb -3.32385 -84.9652
lclavicle 1.22004e-014 -1.17283e-014
lhumerus -31.1885 -11.2412 77.7245
lradius 59.5494
lwrist -4.92534
lhand -31.5663 -44.0722
lfingers 7.12502
lthumb -4.82999 -14.1472
rfemur -70.9859 -0.0375114 19.6218
rtibia 91.7651
rfoot -31.0057 -20.1924
rtoes -24.7454
lfemur -68.2691 10.5685 -10.7327
ltibia 91.8717
lfoot -34.1509 9.21104
ltoes -28.9532
198
root 0.123089 13.787 5.00376 24.5655 -4.09719 -3.89071
lowerback 1.7978 -1.30286 3.31095
upperback -5.7978 -1.42897 2.54817
thorax -7.07484 -0.817317 0.926318
lowerneck -19.5004 -2.52076 -6.57151
upperneck 9.8331 -2.29475 4.28942
head 6.27225 -1.00415 2.19202
rclavicle -1.0461e-014 4.96962e-015
rhumerus -34.7644 4.42685 -80.9168
rradius 57.1116
rwrist 6.21487
rhand -30.3719 -53.4668
rfingers 7.12502
rthumb -3.6766 -83.4148
lclavicle -1.0461e-014 4.96962e-015
lhumerus -31.1839 -11.7249 77.9951
lradius 59.7754
lwrist -5.76807
lhand -31.156 -44.727
lfingers 7.12502
lthumb -4.43373 -14.7934
rfemur -70.2192 -0.161624 20.2292
rtibia 91.0796
rfoot -30.955 -20.377
rtoes -24.6649
lfemur -67.7501 9.49617 -9.66036
ltibia 91.3135
lfoot -34.0617 10.1733
ltoes -30.2514
199
root 0.122685 13.8589 5.02975 24.0279 -3.2154 -3.8431
lowerback 1.61565 -1.50571 3.6556
upperback -5.45937 -1.70428 2.55858
thorax -6.62229 -0.965916 0.750787
lowerneck -19.9113 -2.55327 -6.55357
upperneck 10.2858 -2.33074 4.32456
head 6.48709 -1.01594 2.19676
rclavicle 2.00027e-014 -2.54444e-014
rhumerus -34.4422 4.58632 -80.7467
rradius 57.6243
rwrist 7.48662
rhand -30.1315 -53.1202
rfingers 7.12502
rthumb -3.44446 -83.0721
lclavicle 2.00027e-014 -2.54444e-014
lhumerus -30.3177 -12.2448 78.0482
lradius 59.939
lwrist -6.79932
lhand -30.8055 -44.7675
lfingers 7.12502
lthumb -4.09528 -14.8271
rfemur -68.984 -0.380102 20.2739
rtibia 90.3508
rfoot -30.8293 -20.4372
rtoes -24.4036
lfemur -66.5794 8.28702 -9.19047
ltibia 90.3868
lfoot -33.7261 11.0651
ltoes -33.2548
200
root 0.111789 13.9595 5.03197 23.8926 -3.29976 -4.06454
lowerback 1.69732 -1.40127 3.63104
upperback -5.4889 -1.556 2.61573
thorax -6.69635 -0.890102 0.816302
lowerneck -20.0405 -2.52779 -6.65427
upperneck 10.7244 -2.29027 4.45332
head 6.65107 -0.990386 2.26126
rclavicle -3.10104e-014 9.0447e-015
rhumerus -34.5209 4.58529 -80.465
rradius 58.3105
rwrist 9.38989
rhand -28.1814 -52.3334
rfingers 7.12502
rthumb -1.56113 -82.3074
lclavicle -3.10104e-014 9.0447e-015
lhumerus -29.8809 -12.7131 78.1791
lradius 60.2473
lwrist -7.81452
lhand -30.5118 -44.8564
lfingers 7.12502
lthumb -3.81174 -14.9108
rfemur -68.1929 0.392424 20.3047
rtibia 89.3329
rfoot -29.8801 -20.9289
rtoes -24.9084
lfemur -66.3424 8.2035 -8.85552
ltibia 89.5627
lfoot -33.455 9.20885
ltoes -29.5818
201
root 0.105706 14.0222 5.02811 23.5731 -3.0195 -4.19033
lowerback 1.97693 -1.40316 3.70171
upperback -5.61479 -1.53056 2.66549
thorax -6.99423 -0.882652 0.839736
lowerneck -19.5361 -2.50881 -6.89846
upperneck 10.9174 -2.27822 4.70698
head 6.63753 -0.979492 2.38768
rclavicle 5.11871e-015 -1.74931e-014
rhumerus -34.9014 4.74535 -80.3023
rradius 59.0845
rwrist 10.4467
rhand -26.0214 -51.7062
rfingers 7.12502
rthumb 0.52511 -81.6853
lclavicle 5.11871e-015 -1.74931e-014
lhumerus -29.8552 -13.3289 78.4427
lradius 60.7939
lwrist -8.4804
lhand -30.332 -45.3023
lfingers 7.12502
lthumb -3.63809 -15.3536
rfemur -67.3634 0.66825 20.393
rtibia 88.4233
rfoot -29.109 -21.2262
rtoes -25.6286
lfemur -64.9944 7.96022 -8.61994
ltibia 88.289
lfoot -32.5801 11.6687
ltoes -33.496
202
root 0.0969808 14.0994 5.02935 23.2158 -2.82655 -4.14749
lowerback 2.2219 -1.36262 3.54383
upperback -5.72006 -1.46807 2.64066
thorax -7.24414 -0.845896 0.907256
lowerneck -19.4454 -2.5408 -6.84713
upperneck 11.5184 -2.35764 4.71471
head 6.82253 -1.01942 2.37624
rclavicle 6.4605e-015 1.5704e-014
rhumerus -35.3013 4.98914 -80.2977
rradius 59.7823
rwrist 10.3501
rhand -25.8057 -51.6756
rfingers 7.12502
rthumb 0.733377 -81.6541
lclavicle 6.4605e-015 1.5704e-014
lhumerus -29.8236 -14.1645 78.7517
lradius 61.2656
lwrist -8.86514
lhand -30.4916 -44.9876
lfingers 7.12502
lthumb -3.79223 -15.0415
rfemur -66.4389 0.913834 20.2916
rtibia 87.2875
rfoot -28.7874 -21.1829
rtoes -26.497
lfemur -63.9774 7.69681 -8.54353
ltibia 87.0042
lfoot -31.6657 12.3349
ltoes -35.138
